<?xml version="1.0" encoding="UTF-8" standalone="no"?>
<svg
   width="2500"
   height="2500"
   viewBox="-0.716259478639536 -11.240984926608125 7.74238908096865 26.657682895244093"
   preserveAspectRatio="xMidYMid"
   version="1.1"
   id="svg5"
   sodipodi:docname="sqlite.svg"
   inkscape:version="1.3.2 (091e20ef0f, 2023-11-25, custom)"
   xmlns:inkscape="http://www.inkscape.org/namespaces/inkscape"
   xmlns:sodipodi="http://sodipodi.sourceforge.net/DTD/sodipodi-0.dtd"
   xmlns="http://www.w3.org/2000/svg"
   xmlns:svg="http://www.w3.org/2000/svg">
  <sodipodi:namedview
     id="namedview5"
     pagecolor="#ffffff"
     bordercolor="#000000"
     borderopacity="0.25"
     inkscape:showpageshadow="2"
     inkscape:pageopacity="0.0"
     inkscape:pagecheckerboard="0"
     inkscape:deskcolor="#d1d1d1"
     inkscape:zoom="0.1724"
     inkscape:cx="1250"
     inkscape:cy="1252.9002"
     inkscape:window-width="1894"
     inkscape:window-height="1054"
     inkscape:window-x="0"
     inkscape:window-y="0"
     inkscape:window-maximized="1"
     inkscape:current-layer="svg5" />
  <defs
     id="defs3">
    <linearGradient
       x1="2.983"
       y1=".53"
       x2="2.983"
       y2="4.744"
       id="a"
       gradientUnits="userSpaceOnUse"
       gradientTransform="matrix(3.8948489,0,0,3.8948489,-9.4872728,-10.682851)">
      <stop
         stop-color="#97d9f6"
         offset="0%"
         id="stop1" />
      <stop
         stop-color="#0f80cc"
         offset="92.024%"
         id="stop2" />
      <stop
         stop-color="#0f80cc"
         offset="100%"
         id="stop3" />
    </linearGradient>
  </defs>
  <path
     d="M 9.8311779,-9.5533443 H -6.1883357 c -1.0749782,0 -1.9474245,0.8802359 -1.9474245,1.9474245 V 10.061114 c 0,1.074979 0.8802359,1.947425 1.9474245,1.947425 H 4.3667048 C 4.2498594,6.7582829 6.0414898,-3.4306418 9.8350727,-9.5689236 Z"
     fill="#0f80cc"
     id="path3"
     style="stroke-width:3.89485" />
  <path
     d="M 9.2469505,-8.9808015 H -6.1883357 a 1.3865662,1.3865662 0 0 0 -1.3826714,1.3826714 V 8.7797095 C -4.0734328,7.4359866 1.1729287,6.2792165 4.8029279,6.3337444 A 112.67798,112.67798 0 0 1 9.2508454,-8.9808015 Z"
     fill="url(#a)"
     id="path4"
     style="fill:url(#a);stroke-width:3.89485" />
  <path
     d="m 13.570233,-10.129782 c -1.098347,-0.973713 -2.426491,-0.584228 -3.7390551,0.5764377 l -0.5842274,0.568648 C 7.0035175,-6.6088385 4.9626167,-2.1998696 4.2771233,1.1691748 a 9.2697404,9.2697404 0 0 1 0.5764376,1.6592056 l 0.085687,0.3894849 0.085687,0.3972746 c 0,0 -0.019474,-0.077897 -0.1012658,-0.311588 L 4.8691403,3.147758 A 1.7955253,1.7955253 0 0 0 4.8340867,3.0620713 18.372002,18.372002 0 0 0 4.1057499,1.6910845 34.231827,34.231827 0 0 0 3.7045805,2.941331 c 0.51412,0.9425534 0.825708,2.5550209 0.825708,2.5550209 0,0 -0.027264,-0.105161 -0.1557939,-0.4673819 C 4.257649,4.7056976 3.6890011,3.7047213 3.5565762,3.4710305 3.3228854,4.3278973 3.2333038,4.9043348 3.3150956,5.0445494 3.4708895,5.3171888 3.6266836,5.8235192 3.7630032,6.3064805 A 29.289264,29.289264 0 0 1 4.2771233,8.9004498 L 4.2965973,9.14193 a 23.797527,23.797527 0 0 0 0.058422,2.921137 c 0.1012657,1.219088 0.2921136,2.266802 0.5335943,2.82766 l 0.1635837,-0.08958 C 4.7016618,13.695009 4.5536576,12.250019 4.6159751,10.579129 4.7133464,8.0280036 5.2975737,4.9510731 6.3842365,1.7456124 8.2265,-3.1346332 10.765941,-7.0216925 13.095061,-8.8756406 10.972369,-6.9593749 8.1018649,-0.75877549 7.2449981,1.5352905 6.2829705,4.1058908 5.6013719,6.5206971 5.188518,8.8303425 5.8973805,6.6648066 8.1875516,5.7300428 8.1875516,5.7300428 c 0,0 1.1295061,-1.3865662 2.4381754,-3.3690443 L 8.1135494,3.0309126 7.3034209,3.3892387 c 0,0 2.0642699,-1.2580362 3.8442161,-1.8305791 2.44207,-3.8442158 5.102252,-9.3086888 2.422596,-11.6923366"
     fill="#003b57"
     id="path5"
     style="stroke-width:3.89485" />
</svg>
